<mxfile host="app.diagrams.net" modified="2023-07-11T04:00:03.252Z" agent="Mozilla/5.0 (Macintosh; Intel Mac OS X 10_15_7) AppleWebKit/537.36 (KHTML, like Gecko) Chrome/114.0.0.0 Safari/537.36" etag="WIvYFx4k-T7foTzJZmhN" version="21.6.1" type="github">
  <diagram id="prtHgNgQTEPvFCAcTncT" name="Page-1">
    <mxGraphModel dx="1286" dy="706" grid="1" gridSize="10" guides="1" tooltips="1" connect="1" arrows="1" fold="1" page="1" pageScale="1" pageWidth="827" pageHeight="1169" math="0" shadow="0">
      <root>
        <mxCell id="0" />
        <mxCell id="1" parent="0" />
        <mxCell id="6Z4ukyNFWC2d0Hdw2C0m-22" value="" style="edgeStyle=orthogonalEdgeStyle;rounded=0;orthogonalLoop=1;jettySize=auto;html=1;" edge="1" parent="1" source="6Z4ukyNFWC2d0Hdw2C0m-10" target="6Z4ukyNFWC2d0Hdw2C0m-21">
          <mxGeometry relative="1" as="geometry" />
        </mxCell>
        <mxCell id="6Z4ukyNFWC2d0Hdw2C0m-23" value="Y" style="edgeLabel;html=1;align=center;verticalAlign=middle;resizable=0;points=[];" vertex="1" connectable="0" parent="6Z4ukyNFWC2d0Hdw2C0m-22">
          <mxGeometry x="-0.1846" relative="1" as="geometry">
            <mxPoint as="offset" />
          </mxGeometry>
        </mxCell>
        <mxCell id="6Z4ukyNFWC2d0Hdw2C0m-29" style="edgeStyle=orthogonalEdgeStyle;rounded=0;orthogonalLoop=1;jettySize=auto;html=1;exitX=0.5;exitY=1;exitDx=0;exitDy=0;entryX=0.5;entryY=0;entryDx=0;entryDy=0;" edge="1" parent="1" source="6Z4ukyNFWC2d0Hdw2C0m-10" target="6Z4ukyNFWC2d0Hdw2C0m-24">
          <mxGeometry relative="1" as="geometry" />
        </mxCell>
        <mxCell id="6Z4ukyNFWC2d0Hdw2C0m-32" value="N" style="edgeLabel;html=1;align=center;verticalAlign=middle;resizable=0;points=[];" vertex="1" connectable="0" parent="6Z4ukyNFWC2d0Hdw2C0m-29">
          <mxGeometry x="-0.2444" y="2" relative="1" as="geometry">
            <mxPoint as="offset" />
          </mxGeometry>
        </mxCell>
        <mxCell id="6Z4ukyNFWC2d0Hdw2C0m-10" value="isToday" style="rhombus;whiteSpace=wrap;html=1;" vertex="1" parent="1">
          <mxGeometry x="670" y="330" width="80" height="80" as="geometry" />
        </mxCell>
        <mxCell id="6Z4ukyNFWC2d0Hdw2C0m-46" style="edgeStyle=orthogonalEdgeStyle;rounded=0;orthogonalLoop=1;jettySize=auto;html=1;exitX=0.5;exitY=1;exitDx=0;exitDy=0;entryX=0.5;entryY=0;entryDx=0;entryDy=0;" edge="1" parent="1" source="6Z4ukyNFWC2d0Hdw2C0m-11" target="6Z4ukyNFWC2d0Hdw2C0m-12">
          <mxGeometry relative="1" as="geometry" />
        </mxCell>
        <mxCell id="6Z4ukyNFWC2d0Hdw2C0m-11" value="start" style="ellipse;whiteSpace=wrap;html=1;" vertex="1" parent="1">
          <mxGeometry x="240" width="100" height="50" as="geometry" />
        </mxCell>
        <mxCell id="6Z4ukyNFWC2d0Hdw2C0m-17" style="edgeStyle=orthogonalEdgeStyle;rounded=0;orthogonalLoop=1;jettySize=auto;html=1;exitX=1;exitY=0.5;exitDx=0;exitDy=0;" edge="1" parent="1" source="6Z4ukyNFWC2d0Hdw2C0m-12">
          <mxGeometry relative="1" as="geometry">
            <mxPoint x="450" y="120" as="targetPoint" />
          </mxGeometry>
        </mxCell>
        <mxCell id="6Z4ukyNFWC2d0Hdw2C0m-18" value="call" style="edgeLabel;html=1;align=center;verticalAlign=middle;resizable=0;points=[];" vertex="1" connectable="0" parent="6Z4ukyNFWC2d0Hdw2C0m-17">
          <mxGeometry x="-0.04" relative="1" as="geometry">
            <mxPoint as="offset" />
          </mxGeometry>
        </mxCell>
        <mxCell id="6Z4ukyNFWC2d0Hdw2C0m-20" value="" style="edgeStyle=orthogonalEdgeStyle;rounded=0;orthogonalLoop=1;jettySize=auto;html=1;" edge="1" parent="1" source="6Z4ukyNFWC2d0Hdw2C0m-12">
          <mxGeometry relative="1" as="geometry">
            <mxPoint x="290" y="190" as="targetPoint" />
          </mxGeometry>
        </mxCell>
        <mxCell id="6Z4ukyNFWC2d0Hdw2C0m-12" value="fetch tickets by swid" style="rounded=0;whiteSpace=wrap;html=1;" vertex="1" parent="1">
          <mxGeometry x="230" y="90" width="120" height="60" as="geometry" />
        </mxCell>
        <mxCell id="6Z4ukyNFWC2d0Hdw2C0m-28" value="" style="edgeStyle=orthogonalEdgeStyle;rounded=0;orthogonalLoop=1;jettySize=auto;html=1;entryX=0.5;entryY=0;entryDx=0;entryDy=0;" edge="1" parent="1" source="6Z4ukyNFWC2d0Hdw2C0m-21" target="6Z4ukyNFWC2d0Hdw2C0m-27">
          <mxGeometry relative="1" as="geometry">
            <mxPoint x="940" y="490" as="targetPoint" />
          </mxGeometry>
        </mxCell>
        <mxCell id="6Z4ukyNFWC2d0Hdw2C0m-21" value="PES" style="whiteSpace=wrap;html=1;" vertex="1" parent="1">
          <mxGeometry x="880" y="340" width="120" height="60" as="geometry" />
        </mxCell>
        <mxCell id="6Z4ukyNFWC2d0Hdw2C0m-79" style="edgeStyle=orthogonalEdgeStyle;rounded=0;orthogonalLoop=1;jettySize=auto;html=1;exitX=0.5;exitY=1;exitDx=0;exitDy=0;entryX=1;entryY=0.5;entryDx=0;entryDy=0;" edge="1" parent="1" source="6Z4ukyNFWC2d0Hdw2C0m-24" target="6Z4ukyNFWC2d0Hdw2C0m-55">
          <mxGeometry relative="1" as="geometry" />
        </mxCell>
        <mxCell id="6Z4ukyNFWC2d0Hdw2C0m-24" value="party members" style="whiteSpace=wrap;html=1;" vertex="1" parent="1">
          <mxGeometry x="650" y="565" width="120" height="60" as="geometry" />
        </mxCell>
        <mxCell id="6Z4ukyNFWC2d0Hdw2C0m-30" style="edgeStyle=orthogonalEdgeStyle;rounded=0;orthogonalLoop=1;jettySize=auto;html=1;exitX=0;exitY=0.5;exitDx=0;exitDy=0;entryX=1;entryY=0.5;entryDx=0;entryDy=0;" edge="1" parent="1" source="6Z4ukyNFWC2d0Hdw2C0m-27" target="6Z4ukyNFWC2d0Hdw2C0m-24">
          <mxGeometry relative="1" as="geometry">
            <mxPoint x="900" y="530" as="sourcePoint" />
          </mxGeometry>
        </mxCell>
        <mxCell id="6Z4ukyNFWC2d0Hdw2C0m-47" value="Y" style="edgeLabel;html=1;align=center;verticalAlign=middle;resizable=0;points=[];" vertex="1" connectable="0" parent="6Z4ukyNFWC2d0Hdw2C0m-30">
          <mxGeometry x="0.0615" y="1" relative="1" as="geometry">
            <mxPoint as="offset" />
          </mxGeometry>
        </mxCell>
        <mxCell id="6Z4ukyNFWC2d0Hdw2C0m-73" style="orthogonalLoop=1;jettySize=auto;html=1;exitX=0.5;exitY=1;exitDx=0;exitDy=0;entryX=1;entryY=0.5;entryDx=0;entryDy=0;edgeStyle=orthogonalEdgeStyle;rounded=1;" edge="1" parent="1" source="6Z4ukyNFWC2d0Hdw2C0m-27" target="6Z4ukyNFWC2d0Hdw2C0m-52">
          <mxGeometry relative="1" as="geometry">
            <mxPoint x="760" y="730" as="targetPoint" />
          </mxGeometry>
        </mxCell>
        <mxCell id="6Z4ukyNFWC2d0Hdw2C0m-74" value="N" style="edgeLabel;html=1;align=center;verticalAlign=middle;resizable=0;points=[];" vertex="1" connectable="0" parent="6Z4ukyNFWC2d0Hdw2C0m-73">
          <mxGeometry x="0.12" y="-3" relative="1" as="geometry">
            <mxPoint as="offset" />
          </mxGeometry>
        </mxCell>
        <mxCell id="6Z4ukyNFWC2d0Hdw2C0m-27" value="isParkentry" style="rhombus;whiteSpace=wrap;html=1;" vertex="1" parent="1">
          <mxGeometry x="900" y="555" width="80" height="80" as="geometry" />
        </mxCell>
        <mxCell id="6Z4ukyNFWC2d0Hdw2C0m-33" value="TMS" style="whiteSpace=wrap;html=1;" vertex="1" parent="1">
          <mxGeometry x="450" y="90" width="120" height="60" as="geometry" />
        </mxCell>
        <mxCell id="6Z4ukyNFWC2d0Hdw2C0m-45" style="edgeStyle=orthogonalEdgeStyle;rounded=0;orthogonalLoop=1;jettySize=auto;html=1;exitX=0;exitY=0.5;exitDx=0;exitDy=0;entryX=0.987;entryY=0.032;entryDx=0;entryDy=0;entryPerimeter=0;dashed=1;dashPattern=8 8;" edge="1" parent="1" source="6Z4ukyNFWC2d0Hdw2C0m-34" target="6Z4ukyNFWC2d0Hdw2C0m-35">
          <mxGeometry relative="1" as="geometry" />
        </mxCell>
        <mxCell id="6Z4ukyNFWC2d0Hdw2C0m-49" value="" style="edgeStyle=orthogonalEdgeStyle;rounded=0;orthogonalLoop=1;jettySize=auto;html=1;" edge="1" parent="1" source="6Z4ukyNFWC2d0Hdw2C0m-34" target="6Z4ukyNFWC2d0Hdw2C0m-48">
          <mxGeometry relative="1" as="geometry" />
        </mxCell>
        <mxCell id="6Z4ukyNFWC2d0Hdw2C0m-34" value="filter tickets" style="shape=process;whiteSpace=wrap;html=1;backgroundOutline=1;" vertex="1" parent="1">
          <mxGeometry x="230" y="190" width="120" height="60" as="geometry" />
        </mxCell>
        <mxCell id="6Z4ukyNFWC2d0Hdw2C0m-35" value="filter rule" style="swimlane;fontStyle=0;childLayout=stackLayout;horizontal=1;startSize=30;horizontalStack=0;resizeParent=1;resizeParentMax=0;resizeLast=0;collapsible=1;marginBottom=0;whiteSpace=wrap;html=1;" vertex="1" parent="1">
          <mxGeometry x="30" y="212" width="150" height="250" as="geometry" />
        </mxCell>
        <mxCell id="6Z4ukyNFWC2d0Hdw2C0m-37" value="1.Expired/used ticket, pass" style="text;strokeColor=none;fillColor=none;align=left;verticalAlign=middle;spacingLeft=4;spacingRight=4;overflow=hidden;points=[[0,0.5],[1,0.5]];portConstraint=eastwest;rotatable=0;whiteSpace=wrap;html=1;" vertex="1" parent="6Z4ukyNFWC2d0Hdw2C0m-35">
          <mxGeometry y="30" width="150" height="30" as="geometry" />
        </mxCell>
        <mxCell id="6Z4ukyNFWC2d0Hdw2C0m-39" value="2.Inactivated AP" style="text;strokeColor=none;fillColor=none;align=left;verticalAlign=middle;spacingLeft=4;spacingRight=4;overflow=hidden;points=[[0,0.5],[1,0.5]];portConstraint=eastwest;rotatable=0;whiteSpace=wrap;html=1;" vertex="1" parent="6Z4ukyNFWC2d0Hdw2C0m-35">
          <mxGeometry y="60" width="150" height="30" as="geometry" />
        </mxCell>
        <mxCell id="6Z4ukyNFWC2d0Hdw2C0m-41" value="3.DCS/Tour/Terrace etc. those are not admission products" style="text;strokeColor=none;fillColor=none;align=left;verticalAlign=middle;spacingLeft=4;spacingRight=4;overflow=hidden;points=[[0,0.5],[1,0.5]];portConstraint=eastwest;rotatable=0;whiteSpace=wrap;html=1;" vertex="1" parent="6Z4ukyNFWC2d0Hdw2C0m-35">
          <mxGeometry y="90" width="150" height="60" as="geometry" />
        </mxCell>
        <mxCell id="6Z4ukyNFWC2d0Hdw2C0m-40" value="4.Blacklist product such as main PLU of MEP/Cast ID/Yellow Pass/Club 33 , the replacement PLU (PLU after ticket print) should not be blocked" style="text;strokeColor=none;fillColor=none;align=left;verticalAlign=middle;spacingLeft=4;spacingRight=4;overflow=hidden;points=[[0,0.5],[1,0.5]];portConstraint=eastwest;rotatable=0;whiteSpace=wrap;html=1;" vertex="1" parent="6Z4ukyNFWC2d0Hdw2C0m-35">
          <mxGeometry y="150" width="150" height="100" as="geometry" />
        </mxCell>
        <mxCell id="6Z4ukyNFWC2d0Hdw2C0m-53" value="" style="edgeStyle=orthogonalEdgeStyle;rounded=0;orthogonalLoop=1;jettySize=auto;html=1;" edge="1" parent="1" source="6Z4ukyNFWC2d0Hdw2C0m-48" target="6Z4ukyNFWC2d0Hdw2C0m-52">
          <mxGeometry relative="1" as="geometry" />
        </mxCell>
        <mxCell id="6Z4ukyNFWC2d0Hdw2C0m-54" value="Y" style="edgeLabel;html=1;align=center;verticalAlign=middle;resizable=0;points=[];" vertex="1" connectable="0" parent="6Z4ukyNFWC2d0Hdw2C0m-53">
          <mxGeometry x="-0.2444" y="2" relative="1" as="geometry">
            <mxPoint as="offset" />
          </mxGeometry>
        </mxCell>
        <mxCell id="6Z4ukyNFWC2d0Hdw2C0m-72" value="N" style="edgeLabel;html=1;align=center;verticalAlign=middle;resizable=0;points=[];" vertex="1" connectable="0" parent="6Z4ukyNFWC2d0Hdw2C0m-53">
          <mxGeometry x="0.8269" y="-2" relative="1" as="geometry">
            <mxPoint as="offset" />
          </mxGeometry>
        </mxCell>
        <mxCell id="6Z4ukyNFWC2d0Hdw2C0m-59" value="" style="edgeStyle=orthogonalEdgeStyle;rounded=0;orthogonalLoop=1;jettySize=auto;html=1;" edge="1" parent="1" source="6Z4ukyNFWC2d0Hdw2C0m-48" target="6Z4ukyNFWC2d0Hdw2C0m-58">
          <mxGeometry relative="1" as="geometry" />
        </mxCell>
        <mxCell id="6Z4ukyNFWC2d0Hdw2C0m-64" value="N" style="edgeLabel;html=1;align=center;verticalAlign=middle;resizable=0;points=[];" vertex="1" connectable="0" parent="6Z4ukyNFWC2d0Hdw2C0m-59">
          <mxGeometry x="-0.1429" y="1" relative="1" as="geometry">
            <mxPoint as="offset" />
          </mxGeometry>
        </mxCell>
        <mxCell id="6Z4ukyNFWC2d0Hdw2C0m-75" style="edgeStyle=orthogonalEdgeStyle;rounded=0;orthogonalLoop=1;jettySize=auto;html=1;exitX=0.5;exitY=1;exitDx=0;exitDy=0;entryX=0;entryY=0.5;entryDx=0;entryDy=0;" edge="1" parent="1" source="6Z4ukyNFWC2d0Hdw2C0m-48" target="6Z4ukyNFWC2d0Hdw2C0m-52">
          <mxGeometry relative="1" as="geometry" />
        </mxCell>
        <mxCell id="6Z4ukyNFWC2d0Hdw2C0m-76" value="Y" style="edgeLabel;html=1;align=center;verticalAlign=middle;resizable=0;points=[];" vertex="1" connectable="0" parent="6Z4ukyNFWC2d0Hdw2C0m-75">
          <mxGeometry x="-0.3469" y="1" relative="1" as="geometry">
            <mxPoint as="offset" />
          </mxGeometry>
        </mxCell>
        <mxCell id="6Z4ukyNFWC2d0Hdw2C0m-48" value="isConflicted" style="rhombus;whiteSpace=wrap;html=1;" vertex="1" parent="1">
          <mxGeometry x="250" y="330" width="80" height="80" as="geometry" />
        </mxCell>
        <mxCell id="6Z4ukyNFWC2d0Hdw2C0m-56" style="edgeStyle=orthogonalEdgeStyle;rounded=0;orthogonalLoop=1;jettySize=auto;html=1;exitX=0.5;exitY=1;exitDx=0;exitDy=0;entryX=0.5;entryY=0;entryDx=0;entryDy=0;" edge="1" parent="1" source="6Z4ukyNFWC2d0Hdw2C0m-52" target="6Z4ukyNFWC2d0Hdw2C0m-55">
          <mxGeometry relative="1" as="geometry" />
        </mxCell>
        <mxCell id="6Z4ukyNFWC2d0Hdw2C0m-52" value="conflicts" style="whiteSpace=wrap;html=1;" vertex="1" parent="1">
          <mxGeometry x="450" y="710" width="120" height="60" as="geometry" />
        </mxCell>
        <mxCell id="6Z4ukyNFWC2d0Hdw2C0m-78" style="edgeStyle=orthogonalEdgeStyle;rounded=0;orthogonalLoop=1;jettySize=auto;html=1;" edge="1" parent="1" source="6Z4ukyNFWC2d0Hdw2C0m-55">
          <mxGeometry relative="1" as="geometry">
            <mxPoint x="510" y="830" as="targetPoint" />
          </mxGeometry>
        </mxCell>
        <mxCell id="6Z4ukyNFWC2d0Hdw2C0m-55" value="end" style="ellipse;whiteSpace=wrap;html=1;" vertex="1" parent="1">
          <mxGeometry x="460" y="830" width="100" height="50" as="geometry" />
        </mxCell>
        <mxCell id="6Z4ukyNFWC2d0Hdw2C0m-61" value="" style="edgeStyle=orthogonalEdgeStyle;rounded=0;orthogonalLoop=1;jettySize=auto;html=1;" edge="1" parent="1" source="6Z4ukyNFWC2d0Hdw2C0m-58" target="6Z4ukyNFWC2d0Hdw2C0m-60">
          <mxGeometry relative="1" as="geometry" />
        </mxCell>
        <mxCell id="6Z4ukyNFWC2d0Hdw2C0m-62" value="Y" style="edgeLabel;html=1;align=center;verticalAlign=middle;resizable=0;points=[];" vertex="1" connectable="0" parent="6Z4ukyNFWC2d0Hdw2C0m-61">
          <mxGeometry x="-0.275" y="-1" relative="1" as="geometry">
            <mxPoint as="offset" />
          </mxGeometry>
        </mxCell>
        <mxCell id="6Z4ukyNFWC2d0Hdw2C0m-63" style="edgeStyle=orthogonalEdgeStyle;rounded=0;orthogonalLoop=1;jettySize=auto;html=1;exitX=1;exitY=0.5;exitDx=0;exitDy=0;" edge="1" parent="1" source="6Z4ukyNFWC2d0Hdw2C0m-58" target="6Z4ukyNFWC2d0Hdw2C0m-10">
          <mxGeometry relative="1" as="geometry" />
        </mxCell>
        <mxCell id="6Z4ukyNFWC2d0Hdw2C0m-69" value="N" style="edgeLabel;html=1;align=center;verticalAlign=middle;resizable=0;points=[];" vertex="1" connectable="0" parent="6Z4ukyNFWC2d0Hdw2C0m-63">
          <mxGeometry x="-0.1" y="-1" relative="1" as="geometry">
            <mxPoint as="offset" />
          </mxGeometry>
        </mxCell>
        <mxCell id="6Z4ukyNFWC2d0Hdw2C0m-58" value="isAP/GA" style="rhombus;whiteSpace=wrap;html=1;" vertex="1" parent="1">
          <mxGeometry x="470" y="330" width="80" height="80" as="geometry" />
        </mxCell>
        <mxCell id="6Z4ukyNFWC2d0Hdw2C0m-66" value="" style="edgeStyle=orthogonalEdgeStyle;rounded=0;orthogonalLoop=1;jettySize=auto;html=1;" edge="1" parent="1" source="6Z4ukyNFWC2d0Hdw2C0m-60" target="6Z4ukyNFWC2d0Hdw2C0m-65">
          <mxGeometry relative="1" as="geometry" />
        </mxCell>
        <mxCell id="6Z4ukyNFWC2d0Hdw2C0m-60" value="reservation" style="whiteSpace=wrap;html=1;" vertex="1" parent="1">
          <mxGeometry x="450" y="450" width="120" height="60" as="geometry" />
        </mxCell>
        <mxCell id="6Z4ukyNFWC2d0Hdw2C0m-70" style="edgeStyle=orthogonalEdgeStyle;rounded=0;orthogonalLoop=1;jettySize=auto;html=1;exitX=1;exitY=0.5;exitDx=0;exitDy=0;" edge="1" parent="1" source="6Z4ukyNFWC2d0Hdw2C0m-65" target="6Z4ukyNFWC2d0Hdw2C0m-24">
          <mxGeometry relative="1" as="geometry" />
        </mxCell>
        <mxCell id="6Z4ukyNFWC2d0Hdw2C0m-71" value="Y" style="edgeLabel;html=1;align=center;verticalAlign=middle;resizable=0;points=[];" vertex="1" connectable="0" parent="6Z4ukyNFWC2d0Hdw2C0m-70">
          <mxGeometry x="-0.06" y="2" relative="1" as="geometry">
            <mxPoint as="offset" />
          </mxGeometry>
        </mxCell>
        <mxCell id="6Z4ukyNFWC2d0Hdw2C0m-65" value="isBooked" style="rhombus;whiteSpace=wrap;html=1;" vertex="1" parent="1">
          <mxGeometry x="470" y="555" width="80" height="80" as="geometry" />
        </mxCell>
      </root>
    </mxGraphModel>
  </diagram>
</mxfile>
